<?xml version="1.0" standalone="no"?>
<!DOCTYPE svg PUBLIC "-//W3C//DTD SVG 20010904//EN"
 "http://www.w3.org/TR/2001/REC-SVG-20010904/DTD/svg10.dtd">
<svg version="1.0" xmlns="http://www.w3.org/2000/svg"
 width="612.000000pt" height="612.000000pt" viewBox="0 0 612.000000 612.000000"
 preserveAspectRatio="xMidYMid meet">
<metadata>
Created by potrace 1.14, written by Peter Selinger 2001-2017
</metadata>
<g transform="translate(0.000000,612.000000) scale(0.100000,-0.100000)"
fill="#000000" stroke="none">
<path d="M2885 5576 c-16 -6 -36 -17 -43 -23 -7 -7 -18 -13 -24 -13 -6 0 -21
-11 -34 -25 -13 -14 -20 -25 -17 -25 4 0 -1 -6 -12 -13 -10 -8 -15 -19 -11
-26 5 -7 2 -10 -6 -9 -7 2 -12 -3 -10 -9 1 -7 -2 -13 -8 -13 -5 0 -9 -3 -9 -7
1 -5 0 -10 -1 -13 -1 -3 -3 -13 -6 -22 -15 -64 -25 -82 -35 -66 -7 10 -9 10
-9 1 0 -7 -7 -13 -15 -13 -8 0 -15 -5 -15 -11 0 -6 -7 -8 -16 -5 -10 4 -13 2
-8 -6 5 -7 2 -9 -9 -5 -9 3 -18 0 -21 -9 -3 -8 -12 -14 -21 -14 -8 0 -15 -5
-15 -11 0 -5 -4 -8 -9 -5 -5 3 -12 -1 -15 -10 -4 -9 -13 -14 -22 -10 -8 3 -12
2 -9 -4 3 -5 -5 -15 -19 -21 -14 -7 -23 -17 -19 -22 4 -6 0 -8 -10 -4 -9 3
-19 1 -23 -5 -4 -7 -3 -8 4 -4 7 4 12 2 12 -3 0 -6 -5 -11 -10 -11 -16 0 -81
-71 -74 -81 3 -5 2 -8 -3 -7 -5 2 -21 -10 -36 -26 -25 -27 -30 -38 -24 -52 1
-3 -6 -10 -15 -15 -10 -6 -18 -17 -18 -24 0 -8 -5 -15 -11 -15 -5 0 -7 -4 -4
-10 3 -5 3 -10 -2 -10 -4 0 -17 -20 -28 -45 -11 -25 -23 -45 -27 -45 -5 0 -8
-7 -8 -15 0 -8 -5 -15 -11 -15 -6 0 -9 -7 -6 -14 4 -11 1 -13 -10 -9 -11 4
-14 2 -9 -5 3 -6 -7 -25 -24 -42 -16 -17 -30 -35 -30 -41 0 -5 -11 -15 -25
-21 -19 -8 -22 -14 -13 -20 10 -6 10 -8 -1 -8 -8 0 -23 -10 -35 -21 -33 -33
-140 -109 -153 -109 -7 0 -13 -4 -13 -8 0 -5 -18 -15 -40 -22 -22 -7 -40 -17
-40 -22 0 -5 -4 -6 -10 -3 -5 3 -10 2 -10 -4 0 -5 -12 -8 -26 -5 -20 4 -25 1
-21 -10 4 -9 0 -13 -11 -11 -9 1 -28 -4 -41 -12 -13 -8 -20 -10 -17 -4 4 6 3
11 -3 11 -5 0 -12 -4 -16 -9 -3 -6 -15 -8 -27 -6 -12 3 -27 0 -34 -6 -7 -6
-18 -8 -23 -5 -5 4 -12 2 -16 -4 -4 -6 -11 -7 -17 -4 -6 4 -14 0 -19 -7 -6 -9
-9 -10 -9 -2 0 9 -9 8 -34 -2 -18 -8 -36 -12 -38 -10 -2 3 -23 -4 -47 -15 -23
-12 -46 -18 -51 -15 -6 3 -10 2 -10 -4 0 -5 -13 -12 -30 -16 -17 -4 -30 -10
-30 -15 0 -7 -52 -30 -67 -29 -3 1 -10 -6 -15 -15 -5 -9 -15 -16 -22 -16 -8 0
-17 -7 -20 -16 -3 -8 -10 -13 -15 -10 -5 3 -11 -1 -15 -9 -3 -8 -13 -15 -21
-15 -9 0 -14 -4 -10 -9 3 -5 -4 -13 -16 -16 -11 -4 -18 -9 -15 -12 3 -3 -13
-20 -34 -38 -21 -18 -36 -35 -33 -39 4 -3 2 -6 -4 -6 -10 0 -69 -82 -64 -89 2
-2 -3 -7 -11 -12 -7 -5 -13 -14 -13 -21 -1 -7 -6 -12 -13 -10 -7 1 -11 -1 -10
-5 5 -17 -22 -73 -34 -73 -9 0 -9 -3 2 -10 8 -5 10 -10 4 -10 -13 0 -36 -69
-27 -83 3 -6 1 -7 -5 -3 -7 4 -12 4 -13 -1 0 -4 -3 -19 -5 -33 -3 -14 -5 -33
-6 -42 -1 -10 -6 -18 -10 -18 -4 0 -5 -7 -2 -15 4 -8 1 -22 -6 -30 -8 -10 -9
-15 -1 -15 7 0 8 -8 2 -22 -11 -31 -11 -217 0 -224 5 -3 5 -13 -1 -23 -5 -11
-5 -22 0 -27 5 -5 10 -24 12 -42 1 -17 7 -32 13 -32 5 0 4 -4 -4 -9 -11 -7 -9
-10 9 -16 15 -5 19 -10 11 -14 -12 -8 -5 -41 8 -41 4 0 7 -13 6 -29 -1 -21 2
-28 12 -24 9 4 11 0 7 -11 -3 -9 -1 -16 5 -16 6 0 11 -9 11 -20 0 -11 4 -20 9
-20 5 0 12 -11 15 -25 4 -16 11 -23 18 -19 6 4 8 3 4 -4 -3 -6 0 -16 7 -24 7
-7 16 -21 20 -30 3 -10 11 -18 17 -18 5 0 10 -7 10 -15 0 -8 5 -15 10 -15 6 0
10 -6 10 -14 0 -8 8 -17 17 -21 10 -3 31 -24 46 -46 16 -23 31 -39 34 -35 6 6
50 -50 59 -76 4 -10 10 -18 15 -18 5 0 9 -7 9 -15 0 -8 9 -20 19 -27 10 -6 17
-18 14 -25 -3 -7 0 -13 7 -13 6 0 8 -4 5 -10 -3 -5 -1 -10 4 -10 6 0 11 -9 11
-20 0 -11 4 -20 8 -20 6 0 29 -50 37 -80 1 -3 5 -13 9 -22 4 -9 5 -22 1 -28
-3 -5 -1 -10 5 -10 7 0 10 -6 7 -14 -3 -8 -2 -16 3 -18 6 -2 11 -27 12 -55 2
-29 5 -53 8 -53 11 0 6 -185 -4 -192 -7 -5 -7 -8 1 -8 9 0 10 -7 5 -22 -5 -13
-8 -38 -8 -55 1 -18 -2 -33 -5 -33 -3 0 -5 -16 -4 -35 0 -20 -3 -41 -7 -48 -4
-6 -2 -17 4 -24 7 -9 7 -13 -1 -13 -7 0 -9 -5 -4 -12 10 -17 11 -48 1 -77 -7
-19 -6 -22 8 -17 13 5 14 4 6 -7 -9 -10 -8 -17 0 -25 9 -9 9 -12 0 -12 -10 0
-10 -5 -2 -20 6 -11 8 -25 5 -30 -3 -6 -2 -10 2 -10 5 0 10 -8 11 -18 2 -22 7
-42 15 -64 4 -10 10 -26 14 -35 3 -10 7 -25 9 -33 2 -8 7 -16 13 -18 5 -2 7
-10 4 -18 -3 -8 0 -14 7 -14 6 0 10 -5 8 -12 -3 -7 2 -19 9 -28 7 -8 14 -19
15 -25 0 -5 7 -14 14 -20 7 -5 14 -16 16 -24 2 -7 20 -31 41 -53 20 -22 35
-44 31 -49 -3 -5 0 -9 6 -9 15 0 40 -25 40 -40 0 -7 7 -10 15 -6 8 3 14 0 12
-7 -1 -7 3 -11 10 -10 6 2 15 -6 18 -17 6 -18 17 -25 38 -21 5 1 6 -3 2 -9 -3
-5 -2 -10 3 -10 4 0 18 -9 30 -20 12 -12 22 -18 22 -15 0 3 15 -5 33 -19 19
-14 37 -23 40 -20 4 4 9 -1 13 -10 3 -9 14 -16 23 -16 9 0 27 -8 40 -17 14 -9
21 -11 17 -5 -10 17 0 15 19 -4 8 -9 27 -17 40 -18 14 0 25 -4 25 -7 0 -3 6
-6 13 -7 20 -1 41 -7 52 -13 6 -4 20 -5 33 -4 12 1 22 -1 22 -4 0 -3 17 -6 38
-6 20 0 40 -4 44 -10 5 -6 8 -6 8 2 0 8 9 9 29 3 19 -5 33 -4 40 3 8 8 11 8
11 -1 0 -9 5 -10 19 -3 14 8 22 6 35 -8 9 -10 14 -20 11 -23 -3 -3 1 -11 9
-17 8 -7 12 -19 9 -27 -3 -8 -2 -14 3 -12 5 2 10 -1 11 -5 1 -4 17 -20 35 -35
18 -15 42 -35 52 -44 11 -10 26 -18 33 -18 7 0 13 -4 13 -8 0 -18 89 -36 190
-38 58 -1 116 -5 130 -9 14 -3 30 -7 35 -8 6 -2 16 -7 24 -11 10 -7 12 -6 6 4
-6 9 -4 11 5 5 7 -4 29 -11 49 -14 57 -9 364 -6 386 3 20 9 61 16 103 19 12 0
22 5 22 9 0 4 8 8 18 8 25 0 142 42 142 52 0 4 7 5 15 2 8 -4 15 -1 15 6 0 6
5 8 10 5 6 -3 13 1 16 10 6 13 8 14 15 3 7 -10 9 -10 9 0 0 6 5 12 11 12 7 0
18 8 26 17 9 11 11 12 7 3 -8 -15 33 14 48 35 5 7 8 7 8 0 0 -5 7 -1 15 9 8
11 15 16 15 11 0 -4 9 2 20 15 11 13 20 19 20 14 0 -5 7 0 15 10 13 17 28 20
120 20 58 0 105 3 105 7 0 9 21 6 39 -5 9 -6 12 -5 7 2 -3 6 -2 13 4 17 5 3
10 1 10 -6 0 -8 4 -8 15 1 8 7 15 10 15 6 0 -3 15 0 34 8 19 8 36 12 39 10 3
-3 20 4 38 15 18 11 36 18 41 15 4 -3 8 0 8 6 0 7 6 10 12 8 7 -3 21 4 32 14
18 16 37 23 59 19 5 -1 6 3 3 8 -3 5 8 14 24 21 17 7 30 17 30 22 0 5 5 6 10
3 6 -3 10 1 10 10 0 11 5 15 16 11 8 -3 12 -2 9 3 -3 5 4 12 15 16 11 3 20 13
20 21 0 8 4 13 9 10 12 -8 43 29 34 39 -5 4 -3 5 3 2 6 -3 25 9 42 28 16 19
28 35 25 35 -3 0 0 7 7 15 7 8 15 13 19 11 4 -3 8 5 8 17 1 12 11 29 22 38 11
9 17 19 14 23 -4 3 -1 6 5 6 7 0 12 7 12 16 0 8 4 12 10 9 6 -3 7 1 4 9 -3 9
-1 16 4 16 6 0 9 9 7 20 -2 11 0 18 4 15 7 -4 16 15 20 40 0 3 8 19 16 35 9
17 12 30 8 30 -4 0 -2 5 5 12 7 7 12 25 12 40 0 15 3 28 8 28 4 0 7 10 7 23 1
12 4 37 8 55 5 25 4 31 -6 26 -9 -6 -9 -4 -1 7 16 20 24 59 12 59 -5 0 -6 4
-3 10 10 16 15 50 7 50 -4 0 -8 19 -8 43 -3 85 -9 147 -14 147 -3 0 -4 51 -3
113 2 61 3 122 3 135 0 13 5 20 10 17 5 -3 7 0 4 9 -3 8 0 24 6 36 10 18 10
21 -2 14 -11 -6 -11 -5 1 9 7 9 10 17 6 17 -4 0 -2 7 5 15 7 8 9 15 5 15 -4 0
-2 6 4 13 6 8 8 17 4 20 -3 4 -1 7 5 7 6 0 9 9 7 20 -2 11 1 20 7 20 5 0 8 7
4 15 -3 8 0 14 6 12 7 -1 13 3 14 8 6 34 18 55 33 55 14 0 14 2 1 10 -12 8
-12 10 3 16 9 3 14 10 11 15 -3 5 2 12 10 15 9 3 16 12 16 20 0 8 5 14 10 14
6 0 10 6 10 14 0 8 7 17 16 20 8 3 13 10 9 15 -3 5 4 12 15 16 11 3 19 12 17
18 -1 7 4 11 12 9 8 -2 11 3 8 12 -4 9 -1 18 5 22 7 4 8 3 4 -4 -5 -8 -2 -10
8 -6 9 3 14 9 13 13 -1 4 9 18 23 32 46 48 68 77 63 83 -4 3 1 6 11 6 9 0 15
4 12 8 -3 5 4 18 14 30 11 12 20 28 20 37 0 9 7 18 15 21 8 4 13 10 10 14 -3
5 0 14 7 22 7 7 14 20 16 28 2 8 9 18 15 22 7 4 8 8 3 8 -5 0 -2 8 5 17 12 14
12 15 0 9 -8 -6 -7 0 4 18 10 14 14 26 10 26 -4 0 -2 7 5 15 7 9 10 18 7 22
-4 3 1 12 11 20 9 8 11 12 5 8 -16 -8 -17 7 -1 23 9 9 9 12 -3 12 -11 0 -12 2
0 9 7 5 14 29 16 55 1 26 5 49 8 52 3 3 2 16 -3 29 -6 15 -4 27 3 35 9 10 9
11 -3 5 -12 -7 -13 -6 -3 7 7 8 10 18 6 22 -13 12 -12 67 0 59 9 -5 9 -3 1 8
-7 8 -14 30 -17 49 -5 35 -14 73 -17 78 -1 1 -3 12 -3 25 -1 12 -8 27 -17 34
-11 9 -11 12 -2 13 10 0 10 5 -2 22 -9 12 -16 30 -16 40 0 10 -5 18 -11 18 -5
0 -8 4 -5 9 3 5 -4 21 -16 37 -13 15 -16 24 -8 19 8 -4 4 4 -9 18 -14 15 -21
30 -18 34 4 3 -2 12 -13 20 -11 8 -20 20 -20 28 0 7 -4 15 -9 17 -5 2 -21 21
-36 43 -14 22 -29 40 -33 40 -11 0 -50 44 -44 49 3 3 -1 6 -9 6 -8 0 -22 8
-30 18 -24 26 -61 55 -92 71 -15 8 -27 18 -27 23 0 5 -4 7 -9 4 -5 -3 -21 4
-37 16 -15 13 -25 17 -20 10 11 -18 0 -15 -20 6 -10 9 -20 17 -23 18 -21 3
-68 18 -76 25 -6 4 -26 10 -45 12 -19 2 -44 8 -55 12 -39 14 -45 14 -45 2 0
-7 -4 -6 -10 3 -11 17 -32 20 -42 5 -5 -6 -8 -6 -8 3 0 6 -9 12 -20 12 -11 0
-20 4 -20 9 0 4 -11 7 -24 6 -13 -2 -36 3 -49 10 -14 7 -28 11 -31 7 -3 -3 -6
-1 -6 5 0 5 -6 10 -12 10 -21 0 -88 34 -88 45 0 5 -4 7 -9 4 -5 -3 -32 10 -61
29 -29 19 -56 35 -62 35 -5 0 -6 5 -3 10 3 6 -1 10 -9 10 -9 0 -16 5 -16 10 0
6 -7 10 -16 10 -8 0 -13 3 -11 8 6 9 -19 33 -27 25 -3 -4 -6 1 -6 10 0 9 -7
17 -16 17 -8 0 -12 4 -9 10 3 5 -3 15 -15 22 -11 7 -20 19 -20 26 0 7 -4 10
-10 7 -5 -3 -10 0 -10 8 0 8 -9 22 -20 32 -10 9 -18 22 -17 29 1 6 -4 10 -10
9 -7 -2 -12 0 -11 5 4 14 -13 52 -23 52 -6 0 -8 4 -4 9 3 5 1 12 -5 16 -5 3
-10 15 -10 25 0 10 -8 23 -17 29 -10 5 -15 13 -11 17 4 4 -2 17 -15 29 -12 11
-23 27 -25 34 -2 8 -13 22 -25 33 -12 11 -15 17 -7 13 10 -4 9 -2 -2 8 -10 8
-18 20 -18 26 0 7 -4 10 -9 6 -5 -3 -12 4 -16 15 -3 11 -10 20 -15 20 -5 0
-26 18 -48 40 -21 22 -44 40 -49 40 -6 0 -14 7 -17 16 -3 8 -9 13 -13 11 -11
-7 -33 19 -25 28 4 4 2 5 -3 3 -15 -4 -75 23 -70 33 3 4 -4 6 -15 4 -11 -2
-20 1 -20 7 0 6 -3 9 -6 5 -4 -3 -13 1 -21 9 -8 8 -19 12 -24 9 -5 -4 -9 -2
-9 3 0 6 -7 13 -16 16 -9 3 -12 2 -9 -4 4 -6 -10 -1 -30 10 -20 11 -34 16 -30
10 3 -6 0 -7 -9 -4 -9 3 -16 10 -16 15 0 4 -6 6 -14 3 -16 -6 -49 23 -41 37 4
5 1 9 -4 9 -6 0 -11 7 -11 16 0 8 -6 21 -12 29 -7 7 -24 27 -38 44 -14 17 -31
31 -38 31 -7 0 -11 4 -8 9 3 5 -1 12 -10 15 -10 4 -13 2 -9 -7 4 -6 0 -4 -8 6
-8 10 -24 19 -36 20 -12 1 -21 4 -21 7 0 11 -134 7 -165 -4z"/>
</g>
</svg>
